<mxfile host="65bd71144e">
    <diagram id="rc8BczszdvnvOcYEXCRA" name="Page-1">
        <mxGraphModel dx="1093" dy="622" grid="1" gridSize="10" guides="1" tooltips="1" connect="1" arrows="1" fold="1" page="1" pageScale="1" pageWidth="850" pageHeight="1100" math="0" shadow="0">
            <root>
                <mxCell id="0"/>
                <mxCell id="1" parent="0"/>
                <mxCell id="kPZDbcVst8zzVYh3kvd9-1" value="" style="rounded=0;whiteSpace=wrap;html=1;" parent="1" vertex="1">
                    <mxGeometry x="30" y="70" width="260" height="420" as="geometry"/>
                </mxCell>
                <mxCell id="kPZDbcVst8zzVYh3kvd9-3" value="&lt;font style=&quot;font-size: 15px&quot;&gt;Welcome page&lt;br&gt;/&lt;/font&gt;" style="rounded=0;whiteSpace=wrap;html=1;fillColor=#d80073;strokeColor=#A50040;fontColor=#ffffff;" parent="1" vertex="1">
                    <mxGeometry x="50" y="110" width="110" height="170" as="geometry"/>
                </mxCell>
                <mxCell id="kPZDbcVst8zzVYh3kvd9-4" value="&lt;font style=&quot;font-size: 15px&quot;&gt;Phone number step&lt;br&gt;&lt;br&gt;&lt;br&gt;/authenticate&lt;br&gt;&lt;br&gt;&lt;br&gt;1&lt;/font&gt;" style="rounded=0;whiteSpace=wrap;html=1;fillColor=#d80073;strokeColor=#A50040;fontColor=#ffffff;" parent="1" vertex="1">
                    <mxGeometry x="50" y="300" width="110" height="170" as="geometry"/>
                </mxCell>
                <mxCell id="kPZDbcVst8zzVYh3kvd9-5" value="&lt;font style=&quot;font-size: 15px&quot;&gt;OTP page&lt;br&gt;&lt;br&gt;/authenticate&lt;br&gt;&lt;br&gt;&lt;br&gt;&lt;br&gt;2&lt;/font&gt;" style="rounded=0;whiteSpace=wrap;html=1;fillColor=#d80073;strokeColor=#A50040;fontColor=#ffffff;" parent="1" vertex="1">
                    <mxGeometry x="165" y="300" width="110" height="170" as="geometry"/>
                </mxCell>
                <mxCell id="kPZDbcVst8zzVYh3kvd9-6" value="" style="rounded=0;whiteSpace=wrap;html=1;" parent="1" vertex="1">
                    <mxGeometry x="300" y="70" width="280" height="420" as="geometry"/>
                </mxCell>
                <mxCell id="kPZDbcVst8zzVYh3kvd9-7" value="&lt;font style=&quot;font-size: 15px&quot; color=&quot;#ffffff&quot;&gt;Full Name step&lt;br&gt;&lt;br&gt;&lt;br&gt;/activate&lt;br&gt;&lt;br&gt;1&lt;/font&gt;" style="rounded=0;whiteSpace=wrap;html=1;fillColor=#f0a30a;strokeColor=#BD7000;fontColor=#000000;" parent="1" vertex="1">
                    <mxGeometry x="320" y="120" width="110" height="170" as="geometry"/>
                </mxCell>
                <mxCell id="kPZDbcVst8zzVYh3kvd9-9" value="&lt;font style=&quot;font-size: 15px&quot; color=&quot;#ffffff&quot;&gt;Avator step&lt;br&gt;&lt;br&gt;/activate&lt;br&gt;&lt;br&gt;2&lt;/font&gt;" style="rounded=0;whiteSpace=wrap;html=1;fillColor=#f0a30a;strokeColor=#BD7000;fontColor=#000000;" parent="1" vertex="1">
                    <mxGeometry x="440" y="120" width="120" height="170" as="geometry"/>
                </mxCell>
                <mxCell id="kPZDbcVst8zzVYh3kvd9-10" value="" style="rounded=0;whiteSpace=wrap;html=1;" parent="1" vertex="1">
                    <mxGeometry x="590" y="70" width="290" height="420" as="geometry"/>
                </mxCell>
                <mxCell id="kPZDbcVst8zzVYh3kvd9-11" value="&lt;font style=&quot;font-size: 15px&quot;&gt;Rooms page&lt;br&gt;&lt;br&gt;/rooms&lt;/font&gt;" style="rounded=0;whiteSpace=wrap;html=1;fillColor=#0050ef;strokeColor=#001DBC;fontColor=#ffffff;" parent="1" vertex="1">
                    <mxGeometry x="630" y="110" width="110" height="170" as="geometry"/>
                </mxCell>
                <mxCell id="kPZDbcVst8zzVYh3kvd9-12" value="&lt;font style=&quot;font-size: 15px&quot;&gt;Profile page&lt;br&gt;&lt;br&gt;/profile&lt;/font&gt;" style="rounded=0;whiteSpace=wrap;html=1;fillColor=#0050ef;strokeColor=#001DBC;fontColor=#ffffff;" parent="1" vertex="1">
                    <mxGeometry x="630" y="310" width="110" height="170" as="geometry"/>
                </mxCell>
                <mxCell id="kPZDbcVst8zzVYh3kvd9-13" value="&lt;font style=&quot;font-size: 15px&quot;&gt;Single room&lt;br&gt;&lt;br&gt;/room/1&lt;/font&gt;" style="rounded=0;whiteSpace=wrap;html=1;fillColor=#0050ef;strokeColor=#001DBC;fontColor=#ffffff;" parent="1" vertex="1">
                    <mxGeometry x="750" y="110" width="100" height="170" as="geometry"/>
                </mxCell>
                <mxCell id="kPZDbcVst8zzVYh3kvd9-14" value="&lt;font color=&quot;#ffffff&quot; style=&quot;font-size: 17px&quot;&gt;Guest Area&lt;/font&gt;" style="text;html=1;strokeColor=none;fillColor=none;align=center;verticalAlign=middle;whiteSpace=wrap;rounded=0;" parent="1" vertex="1">
                    <mxGeometry x="110" y="80" width="100" height="20" as="geometry"/>
                </mxCell>
                <mxCell id="kPZDbcVst8zzVYh3kvd9-15" value="&lt;font color=&quot;#ffffff&quot; style=&quot;font-size: 17px&quot;&gt;Semi Protected Area&lt;/font&gt;" style="text;html=1;strokeColor=none;fillColor=none;align=center;verticalAlign=middle;whiteSpace=wrap;rounded=0;" parent="1" vertex="1">
                    <mxGeometry x="370" y="80" width="170" height="20" as="geometry"/>
                </mxCell>
                <mxCell id="kPZDbcVst8zzVYh3kvd9-17" value="&lt;font color=&quot;#ffffff&quot; style=&quot;font-size: 17px&quot;&gt;Protected Area&lt;/font&gt;" style="text;html=1;strokeColor=none;fillColor=none;align=center;verticalAlign=middle;whiteSpace=wrap;rounded=0;" parent="1" vertex="1">
                    <mxGeometry x="690" y="80" width="120" height="20" as="geometry"/>
                </mxCell>
            </root>
        </mxGraphModel>
    </diagram>
</mxfile>